<svg width="241" height="462" viewBox="0 0 241 462" fill="none" xmlns="http://www.w3.org/2000/svg">
<path d="M23.9151 305.292C-9.20944 268.013 -63.0778 230.351 -82.4214 286.142C-98.8582 332.772 -54.6922 363.125 -30.7062 378.126C-8.5604 393.51 24.4178 393.669 42.0466 421.501C60.6165 449.651 67.9356 495.835 71.3234 541.061C74.7111 586.287 74.8567 594.745 79.3737 610.799C98.529 675.717 121.03 627.715 123.289 595.223C127.304 535.763 119.378 472.567 152.44 432.448C173.582 406.372 199.472 390.765 218.502 362.231C232.533 340.56 254.24 299.962 230.275 274.907C207.272 251.065 171.951 285.951 151.352 297.536C169.337 267.822 228.602 164.571 198.342 121.994C168.082 79.4174 126.217 177.689 111.118 208.169C113.021 177.561 128.371 -18.8862 72.6406 1.47668C36.4211 14.7221 51.289 172.104 56.4961 218.51C42.025 194.318 -12.116 76.5126 -38.6115 136.803C-58.0805 182.859 -10.9242 251.927 23.9151 305.292Z" fill="#FEA57D"/>
</svg>
