<svg width="381" height="355" viewBox="0 0 381 355" fill="none" xmlns="http://www.w3.org/2000/svg">
<path d="M28.2879 349.264C52.7497 319.425 82.8495 317.006 82.8495 277.597C82.8495 238.188 26.7874 243.51 20.7402 191.574C14.693 139.638 40.4278 100.175 75.3018 109.1C110.176 118.024 149.415 112.702 166.238 75.0671C183.061 37.4322 214.798 -9.18159 263.312 1.57125C311.826 12.3241 310.371 78.6693 338.38 75.0671C366.388 71.4649 422.45 28.4536 457.324 64.3143C492.198 100.175 431.407 191.574 450.413 223.833C469.418 256.091 555.808 302.651 548.26 374.372C540.712 446.094 487.606 498.03 425.496 499.804C363.387 501.578 345.745 535.665 314.373 585.827C283 635.989 208.523 657.387 166.238 637.709C123.953 618.032 134.41 537.332 95.0804 512.224C55.7506 487.116 5.23561 481.955 0.68881 431.578C-3.85799 381.201 15.1022 365.394 28.2879 349.264Z" fill="#F7F9D4"/>
<path d="M233.666 186.517C187.516 186.517 154.097 217.431 140.457 276.572C126.817 335.712 195.019 453.993 285.955 437.864C376.891 421.735 393.941 330.336 381.437 272.539C368.934 214.743 330.286 186.517 233.666 186.517Z" fill="#E6E5A7"/>
</svg>
