<svg width="322" height="449" viewBox="0 0 322 449" fill="none" xmlns="http://www.w3.org/2000/svg">
<path d="M-198.712 153.264C-174.25 123.425 -144.151 121.006 -144.151 81.597C-144.151 42.1878 -200.213 47.5105 -206.26 -4.42572C-212.307 -56.3619 -186.572 -95.8253 -151.698 -86.9004C-116.824 -77.9756 -77.5854 -83.298 -60.7622 -120.933C-43.9391 -158.568 -12.2024 -205.182 36.3119 -194.429C84.8263 -183.676 83.3713 -117.331 111.38 -120.933C139.388 -124.535 195.45 -167.546 230.324 -131.686C265.198 -95.825 204.407 -4.42572 223.413 27.8328C242.418 60.0913 328.808 106.651 321.26 178.372C313.712 250.094 260.606 302.03 198.496 303.804C136.387 305.578 118.745 339.665 87.3725 389.827C55.9996 439.989 -18.477 461.387 -60.7622 441.709C-103.047 422.032 -92.5898 341.332 -131.92 316.224C-171.249 291.116 -221.764 285.955 -226.311 235.578C-230.858 185.201 -211.898 169.394 -198.712 153.264Z" fill="#F7F9D4"/>
<path d="M6.66648 -9.48328C-39.4835 -9.48328 -72.9025 21.4311 -86.5429 80.5717C-100.183 139.712 -31.9813 257.993 58.9547 241.864C149.891 225.735 166.941 134.336 154.437 76.5394C141.934 18.7429 103.286 -9.48328 6.66648 -9.48328Z" fill="#E6E5A7"/>
</svg>
