<svg width="322" height="426" viewBox="0 0 322 426" fill="none" xmlns="http://www.w3.org/2000/svg">
<path d="M273.085 -34.6553C260.498 -31.128 253.311 -26.1594 250.32 -18.1946C248.183 -12.4295 249.854 -4.19917 252.729 9.26524C255.681 23.3365 262.635 32.022 271.686 34.5252C283.34 37.9008 297.015 32.6668 300.861 22.009C304.131 10.7758 303.641 -1.18381 299.462 -12.1261C294.257 -25.2871 282.136 -37.1965 273.085 -34.6553Z" fill="#FEA57D"/>
<path d="M182.531 -30.2178C172.625 -30.2178 164.234 -28.3214 158.407 -22.6323C151.609 -16.0328 146.753 -6.81631 149.9 1.67954C153.046 10.1754 168.274 7.89971 182.182 5.47233C196.089 3.04494 210.113 -0.444402 211.55 -8.37133C212.495 -12.0482 212.309 -15.9152 211.018 -19.4899C209.726 -23.0646 207.385 -26.1889 204.286 -28.4731C199.391 -31.8866 191.738 -30.3696 182.531 -30.2178Z" fill="#BCA28E"/>
<path d="M203.82 52.7305C194.885 53.1098 188.009 58.4956 182.298 64.3365C176.588 70.1774 173.208 75.7148 176.51 85.9174C179.812 96.12 191.311 100.178 203.703 99.9887C216.095 99.7991 227.711 95.3994 231.129 85.8795C234.548 76.3596 233.965 67.4845 228.449 61.416C225.262 58.2733 221.398 55.8631 217.138 54.3608C212.877 52.8584 208.328 52.3015 203.82 52.7305V52.7305Z" fill="#ECC889"/>
<path d="M135.332 93.8063C126.669 90.3928 118.006 95.8923 112.412 102.681C109.497 105.679 107.665 109.525 107.195 113.633C106.725 117.741 107.643 121.886 109.809 125.438C111.624 128.655 114.29 131.338 117.529 133.206C120.768 135.074 124.461 136.059 128.223 136.058C136.381 136.399 144.81 134.313 147.374 126.273C152.153 111.064 149.822 99.3438 135.332 93.8063Z" fill="#FEA57D"/>
<path d="M82.344 16.9265C79.4257 15.5173 76.1667 14.9187 72.9234 15.1962C69.6801 15.4737 66.5775 16.6166 63.9547 18.4999C61.332 20.3832 59.2901 22.9343 58.0526 25.8744C56.815 28.8145 56.4294 32.0302 56.9378 35.1699C58.4882 41.8874 61.1941 48.2996 64.9404 54.1338C68.087 59.823 72.3602 65.8915 82.1886 62.5538C92.017 59.2162 96.3291 48.6343 96.096 39.7971C95.8629 30.9599 91.0847 20.6814 82.344 16.9265Z" fill="#FEA57D"/>
<path d="M28.0349 100.292C20.1217 100.029 12.3026 102.033 5.54217 106.057C-0.75112 110.608 -0.867643 118.384 1.19127 126.386C2.08238 130.644 4.12779 134.59 7.11394 137.812C10.1001 141.035 13.9175 143.415 18.1676 144.706C22.5984 145.713 27.225 145.541 31.5643 144.207C35.9035 142.872 39.7962 140.425 42.8358 137.12C50.2168 129.724 51.9649 121.456 49.0125 114.022C47.4958 109.833 44.635 106.235 40.8554 103.761C37.0759 101.287 32.5795 100.071 28.0349 100.292Z" fill="#ECC889"/>
<path d="M51.0718 187.261C44.5271 190.305 38.6648 194.585 33.8235 199.853C27.7633 205.77 24.4224 211.61 27.9575 218.817C30.9099 224.923 46.8374 228.147 60.6671 225.796C74.4968 223.444 87.5495 215.782 89.4531 208.804C91.5508 201.218 84.9468 192.191 76.3615 187.943C72.4351 186.091 68.1509 185.072 63.7916 184.954C59.4323 184.836 55.097 185.623 51.0718 187.261V187.261Z" fill="#FEA57D"/>
<path d="M165.361 194.581C157.203 190.257 150.016 195.605 147.413 203.115C145.774 210.104 146.652 217.431 149.899 223.861C152.968 230.537 169.789 227.654 176.704 219.462C181.949 213.128 180.822 202.735 165.361 194.581Z" fill="#BCA28E"/>
<path d="M76.3613 246.125C69.2522 252.421 58.5303 270.513 67.1933 275.254C71.5442 277.643 81.2949 273.774 88.9479 269.944C96.6008 266.113 103.166 260.955 100.252 253.862C94.4254 239.677 83.3927 239.867 76.3613 246.125Z" fill="#FEA57D"/>
<path d="M253.156 134.276C238.938 128.131 228.294 135.679 230.236 148.954C231.149 155.778 233.224 162.406 236.374 168.563C239.482 174.214 243.639 176.755 253.467 173.417C263.295 170.08 270.171 162.532 269.899 153.846C269.627 145.161 261.858 138.068 253.156 134.276Z" fill="#FEA57D"/>
<path d="M167.031 270.019C159.961 276.315 150.443 294.635 159.261 299.376C163.612 301.765 173.946 300.438 181.599 296.607C189.252 292.776 193.913 286.101 191.039 279.046C185.056 264.672 174.179 263.61 167.031 270.019Z" fill="#ECC889"/>
<path fill-rule="evenodd" clip-rule="evenodd" d="M423.108 -131.999C497.539 -131.558 499.086 8.93425 539.01 85.9327C569.54 144.815 633.822 186.706 623.987 255.424C613.931 325.695 549.04 355.344 496.18 385.212C444.929 414.17 390.724 440.032 337.411 417.347C276.073 391.248 210.991 339.718 203.481 260.669C196.326 185.355 270.814 147.088 305.793 84.5505C347.847 9.36157 348.735 -132.44 423.108 -131.999Z" fill="#CBC995"/>
</svg>
